<?xml version="1.0" encoding="UTF-8"?>
<svg xmlns="http://www.w3.org/2000/svg" width="500" height="500" viewBox="0 0 500 500" fill="none">
  <path fill-rule="evenodd" clip-rule="evenodd" d="M377.612 187.588C373.383 186.137 369.119 184.794 364.82 183.557C365.533 180.661 366.193 177.753 366.8 174.833C376.482 127.829 370.152 89.9642 348.532 77.4993C327.8 65.5446 293.907 78.0095 259.664 107.804C256.29 110.747 252.993 113.775 249.771 116.889C247.614 114.821 245.419 112.794 243.187 110.808C207.298 78.9377 171.33 65.512 149.736 78.0141C129.028 90.0026 122.893 125.601 131.611 170.144C132.478 174.555 133.457 178.942 134.547 183.305C129.457 184.751 124.542 186.291 119.84 187.93C77.7692 202.599 50.9014 225.586 50.9014 249.435C50.9014 274.062 79.7422 298.763 123.561 313.739C127.115 314.948 130.696 316.068 134.306 317.098C133.134 321.797 132.093 326.525 131.185 331.284C122.873 375.056 129.364 409.81 150.019 421.724C171.352 434.025 207.157 421.382 242.022 390.905C244.778 388.498 247.542 385.951 250.314 383.263C253.802 386.629 257.383 389.895 261.055 393.062C294.832 422.122 328.179 433.858 348.817 421.912C370.131 409.574 377.055 372.237 368.063 326.812C367.377 323.343 366.583 319.802 365.679 316.19C368.195 315.447 370.658 314.678 373.068 313.882C418.622 298.79 448.26 274.39 448.26 249.435C448.26 225.505 420.527 202.363 377.612 187.588ZM367.732 297.765C365.56 298.485 363.33 299.179 361.058 299.852C355.501 282.635 348.779 265.816 340.936 249.513C348.48 233.428 354.94 216.855 360.271 199.907C364.334 201.086 368.28 202.325 372.083 203.634C408.855 216.29 431.284 235.007 431.284 249.428C431.284 264.789 407.058 284.731 367.729 297.764L367.732 297.765ZM351.412 330.104C355.388 350.19 355.954 368.351 353.322 382.548C350.955 395.305 346.196 403.809 340.312 407.215C327.789 414.465 301.008 405.042 272.129 380.194C268.817 377.345 265.487 374.308 262.137 371.084C274.18 357.753 285.309 343.623 295.448 328.791C313.556 327.263 331.537 324.492 349.265 320.496C350.074 323.767 350.791 326.971 351.416 330.108L351.412 330.104ZM186.37 405.963C174.141 410.284 164.392 410.407 158.502 407.012C145.967 399.783 140.757 371.875 147.865 334.449C148.709 330.023 149.677 325.626 150.766 321.256C168.419 325.048 186.31 327.638 204.314 329.008C214.749 343.787 226.143 357.864 238.423 371.15C235.957 373.535 233.433 375.859 230.852 378.121C215.435 391.599 199.987 401.158 186.372 405.968L186.37 405.963ZM129.053 297.666C109.677 291.043 93.6759 282.437 82.7077 273.046C72.853 264.605 67.8761 256.225 67.8761 249.426C67.8761 234.957 89.4479 216.501 125.427 203.958C129.943 202.391 134.502 200.956 139.104 199.655C144.446 216.791 150.916 233.556 158.471 249.839C150.821 266.355 144.271 283.358 138.862 300.737C135.569 299.796 132.299 298.773 129.053 297.666ZM148.271 166.882C140.803 128.715 145.761 99.9263 158.242 92.7015C171.538 85.0062 200.932 95.9791 231.915 123.489C233.895 125.247 235.884 127.089 237.876 128.993C225.678 142.194 214.369 156.189 204.023 170.886C186.189 172.485 168.477 175.238 150.999 179.126C149.989 175.069 149.079 170.988 148.268 166.883L148.271 166.882ZM319.674 209.205C315.792 202.496 311.764 195.872 307.591 189.334C320.27 190.934 332.417 193.061 343.824 195.667C340.162 207.279 335.918 218.698 331.106 229.883C327.434 222.915 323.623 216.022 319.674 209.205ZM249.772 141.127L249.773 141.128C241.82 149.707 233.912 159.164 226.192 169.345C241.855 168.613 257.51 168.616 273.156 169.355C265.842 159.559 258.038 150.137 249.773 141.128L249.773 141.127H249.772ZM179.423 209.324C175.525 216.086 171.786 222.935 168.207 229.873C163.263 218.149 159.034 206.622 155.58 195.49C166.917 192.952 179.007 190.878 191.605 189.305C187.388 195.882 183.327 202.555 179.423 209.324ZM191.967 310.763C179.669 309.429 167.449 307.464 155.353 304.877C158.861 293.548 163.183 281.772 168.232 269.797C171.826 276.738 175.581 283.591 179.497 290.357C183.493 297.258 187.652 304.06 191.973 310.763H191.967ZM250.241 358.931C242.196 350.249 234.168 340.644 226.333 330.319C233.943 330.618 241.692 330.768 249.581 330.77C257.681 330.77 265.677 330.592 273.567 330.238C266.287 340.194 258.502 349.771 250.241 358.931ZM331.262 269.187C336.312 280.6 340.766 292.268 344.606 304.143C332.369 306.893 319.996 309.002 307.539 310.462C311.739 303.803 315.805 297.064 319.738 290.242C323.736 283.31 327.577 276.293 331.262 269.189V269.187ZM305.032 281.766C299.013 292.223 292.659 302.475 285.969 312.523C274.18 313.365 261.997 313.805 249.581 313.805C237.216 313.805 225.188 313.419 213.604 312.669C206.745 302.652 200.271 292.384 194.185 281.864C188.128 271.411 182.477 260.738 177.232 249.847C182.462 238.961 188.096 228.284 194.133 217.817C200.165 207.353 206.587 197.128 213.4 187.144C225.217 186.251 237.334 185.783 249.582 185.783C261.885 185.783 274.018 186.249 285.832 187.155C292.571 197.116 298.953 207.306 304.978 217.724C311.034 228.163 316.744 238.791 322.108 249.607C316.8 260.528 311.109 271.249 305.035 281.771L305.032 281.766ZM340.052 92.2007C353.358 99.8751 358.533 130.821 350.172 171.402C349.624 174.042 349.029 176.675 348.386 179.301C330.88 175.334 313.132 172.529 295.256 170.907C285.015 156.194 273.793 142.189 261.667 128.986C264.644 126.117 267.689 123.322 270.805 120.6C300.141 95.0694 327.559 84.9887 340.052 92.1937V92.2007ZM269.295 219.926C263.46 216.027 256.599 213.946 249.581 213.946C240.171 213.946 231.146 217.684 224.491 224.339C217.837 230.993 214.099 240.018 214.099 249.428C214.099 256.446 216.18 263.307 220.079 269.142C223.977 274.978 229.519 279.526 236.003 282.211C242.487 284.897 249.621 285.6 256.504 284.231C263.388 282.862 269.71 279.482 274.673 274.52C279.635 269.557 283.015 263.235 284.384 256.352C285.753 249.468 285.05 242.334 282.364 235.85C279.679 229.366 275.13 223.824 269.295 219.926Z" fill="#53C1DE"></path>
</svg>
